<?xml version="1.0" standalone="no"?>
<!DOCTYPE svg PUBLIC "-//W3C//DTD SVG 1.1//EN" "http://www.w3.org/Graphics/SVG/1.1/DTD/svg11.dtd" >
<svg xmlns="http://www.w3.org/2000/svg">
<metadata>Generated by IcoMoon</metadata>
<defs>
<font id="icomoon" horiz-adv-x="1024">
<font-face units-per-em="1024" ascent="960" descent="-64" />
<missing-glyph horiz-adv-x="1024" />
<glyph unicode="&#x20;" horiz-adv-x="512" d="" />
<glyph unicode="&#xe600;" glyph-name="multiple-choice" d="M166 838.8h-142c-13 0-23.6-10.6-23.6-23.6v-142c0-13 10.6-23.6 23.6-23.6h142c13 0 23.6 10.6 23.6 23.6v142c0 13-10.6 23.6-23.6 23.6zM314.4 649.6h690.6c10.6 0 19.2 10.6 19.2 23.6v142c0 13-8.6 23.6-19.2 23.6h-690.6c-10.6 0-19.2-10.6-19.2-23.6v-142c0-13 8.6-23.6 19.2-23.6zM166 544h-142c-13 0-23.6-10.6-23.6-23.6v-142c0-13 10.6-23.6 23.6-23.6h142c13 0 23.6 10.6 23.6 23.6v142c0 13-10.6 23.6-23.6 23.6zM153.2 391.2h-116.4v116.4h116.6v-116.4zM1005 544h-690.6c-10.6 0-19.2-10.6-19.2-23.6v-142c0-13 8.6-23.6 19.2-23.6h690.6c10.6 0 19.2 10.6 19.2 23.6v142c0 13-8.6 23.6-19.2 23.6zM987.8 391.2h-656v116.4h656v-116.4zM166 249.2h-142c-13 0-23.6-10.6-23.6-23.6v-142c0-13 10.6-23.6 23.6-23.6h142c13 0 23.6 10.6 23.6 23.6v142c0 13-10.6 23.6-23.6 23.6zM1005 249.2h-690.6c-10.6 0-19.2-10.6-19.2-23.6v-142c0-13 8.6-23.6 19.2-23.6h690.6c10.6 0 19.2 10.6 19.2 23.6v142c0 13-8.6 23.6-19.2 23.6z" />
<glyph unicode="&#xe601;" glyph-name="exclamation-circle" d="M512 960c-282.8 0-512-229.2-512-512s229.2-512 512-512 512 229.2 512 512-229.2 512-512 512zM510 110.6c-48.4 5.2-75 29.2-80 72.4 5 48.2 31.8 75 80 80 50.8-5.2 78.8-31.8 83.8-80-5-43.2-33-67.4-83.8-72.4zM590.2 633c-2.6-12.8-3.8-21.6-3.8-26.6l-45.8-282.4h-57.2l-45.8 282.2c0 5-1.4 14-3.8 26.6-2.6 25.4-3.8 43.2-3.8 53.4 0 71.2 26.6 106.8 80 106.8 55.8 0 83.8-35.6 83.8-106.8 0.2-10-1.2-28-3.6-53.2z" />
<glyph unicode="&#xe602;" glyph-name="envelope-o" d="M972.2 811.2h-920.4c-28.6 0-51.8-23.2-51.8-51.8v-622.8c0-28.6 23.2-51.8 51.8-51.8h920.4c28.6 0 51.8 23.2 51.8 51.8v622.8c0 28.6-23.2 51.8-51.8 51.8zM51.8 776.6h920.4c5 0 9.6-2.2 12.8-5.8l-473-302.2-473 302.2c3.2 3.6 7.6 5.8 12.8 5.8zM972.2 119.4h-920.4c-9.4 0-17.2 7.8-17.2 17.2v596l477.4-305.2 477.4 305.2v-596c0-9.4-7.6-17.2-17.2-17.2z" />
<glyph unicode="&#xe603;" glyph-name="check-circle" d="M512 960c-282.8 0-512-229.2-512-512s229.2-512 512-512 512 229.2 512 512-229.2 512-512 512zM813.6 579.2l-333-333c0 0 0 0-0.2 0l-3.2-3.2c-8-8-24.2-4.8-36.2 7.2l-173.8 173.8c-12 12-15.2 28.2-7.2 36.2l43.4 43.4c8 8 24.2 4.8 36.2-7.2l123.2-123.2 278.4 278.4c8 8 21 8 29 0l43.4-43.4c8-8 8-21 0-29z" />
<glyph unicode="&#xe604;" glyph-name="share-square-o" d="M1000 668c-57.8 50.6-116.2 100-174.6 149.8-9.6 8.2-18.6 20.8-32.8 15.2-16.6-6.6-14.2-23.8-12.2-36.6 6.4-42-14-59.4-52-71-210-63.2-351.6-251.8-355.4-470.8 0-5.8 0.2-11.8 0-17.4-0.2-18-2.6-48 14.4-50.8 24.8-3.4 22.6 27.4 28.6 44.8 50.8 150.8 143.4 256.6 307.6 284.8 53.2 9.2 53.2 8.6 55.2-47.2 0.4-12.4-3-27.8 11.6-33.8 14.2-6 23.6 6.4 33.2 14.4 58.6 49.4 117.6 98.6 175.6 148.6 32.8 28.2 33 41.8 0.8 70zM821.2 151c0-17.4-14.2-31.6-31.6-31.6h-634.8c-17.4 0-40.8 0-52.2 0s-20.6 14.2-20.6 31.6v594c0 17.4 14.2 31.6 31.6 31.6h487.2c17.4 0 31.6 14.2 31.6 31.6v19c0 17.4-14.2 31.6-31.6 31.6h-569.2c-17.4-0.2-31.6-14.4-31.6-31.8v-758c0-17.4 14.2-31.6 31.6-31.6h840.2c17.4 0 31.6 14.2 31.6 31.6v226c0 17.4-14.2 31.6-31.6 31.6h-19c-17.4 0-31.6-14.2-31.6-31.6v-144z" />
<glyph unicode="&#xe605;" glyph-name="bind" d="M955.8 960h-887.6c-37.6 0-68.2-30.6-68.2-68.2v-887.4c0-37.8 30.6-68.4 68.2-68.4h887.4c37.8 0 68.2 30.6 68.2 68.2v887.6c0.2 37.6-30.4 68.2-68 68.2zM234.8 540.4c9.6 6.4 18.4 16.8 26.4 31.2 28.8 51.2 49.6 104 62.4 158.4 38.4-14.4 56-24.8 52.8-31.2-1.6-1.6-4-4-7.2-7.2-8-8-14.4-16-19.2-24-24-56-48.8-102.4-74.4-139.2l74.4 14.4c12.8 22.4 24 49.6 33.6 81.6 30.4-16 46.4-27.2 48-33.6 0-1.6-1.6-3.2-4.8-4.8-8-6.4-15.2-16-21.6-28.8-28.8-60.8-61.6-114.4-98.4-160.8l98.4 26.4c-4.8-14.4-5.6-31.2-2.4-50.4-48-4.8-96-15.2-144-31.2-1.6 16-5.6 32.8-12 50.4 0 3.2 0 5.6 0 7.2 14.4-3.2 43.2 32.8 86.4 108-8-3.2-16-5.6-24-7.2-27.2-4.8-48-9.6-62.4-14.4 0 6.4-4 23.2-12 50.4 0 1.6 0 3.2 0 4.8zM242 278.8c-1.6 1.6-2.4 4-2.4 7.2 22.4-1.6 52.8 0 91.2 4.8 38.4 6.4 68.8 13.6 91.2 21.6-3.2-11.2-4-27.2-2.4-48-70.4-11.2-125.6-22.4-165.6-33.6-1.6 12.8-5.6 28.8-12 48zM606.8 329.2c-4.8 0-12 0-21.6 0-4.8 1.6-20.8 2.4-48 2.4-12.8-67.2-45.6-122.4-98.4-165.6-11.2 9.6-25.6 16.8-43.2 21.6-8 1.6-14.4 3.2-19.2 4.8 64 25.6 103.2 71.2 117.6 136.8-28.8-1.6-48.8-2.4-60-2.4-8 0-13.6 0-16.8 0v50.4c17.6-3.2 44-4 79.2-2.4 0 9.6 0 20.8 0 33.6 1.6 9.6 2.4 28.8 2.4 57.6-24 0-39.2-0.8-45.6-2.4-9.6 0-17.6 0-24 0v48c8-4.8 31.2-6.4 69.6-4.8v84c-25.6-1.6-47.2-3.2-64.8-4.8v50.4c9.6-3.2 31.2-4 64.8-2.4 0 44.8-2.4 75.2-7.2 91.2 25.6 0 42.4-0.8 50.4-2.4 9.6 0 14.4-0.8 14.4-2.4s-0.8-4-2.4-7.2c-8-19.2-12-45.6-12-79.2 20.8 0 38.4 0.8 52.8 2.4 3.2 0 6.4 0.8 9.6 2.4v-50.4c4.8-1.6-5.6-1.6-31.2 0-9.6 0-20 0.8-31.2 2.4v-84c28.8-1.6 49.6-0.8 62.4 2.4v-45.6c-8 0-16.8 0-26.4 0-8 1.6-20 2.4-36 2.4-1.6-25.6-2.4-49.6-2.4-72 0-12.8 0-20 0-21.6 19.2-1.6 32.8-1.6 40.8 0s16.8 4 26.4 7.2v-50.4zM786.8 322c-8-46.4-39.2-70.4-93.6-72-1.6 25.6-9.6 47.2-24 64.8 40-12.8 62.4-0.8 67.2 36 1.6 43.2-16 84.8-52.8 124.8 22.4 59.2 38.4 111.2 48 156h-67.2v-312c0-22.4 0-51.2 0-86.4 1.6-25.6 3.2-44.8 4.8-57.6h-55.2c1.6 19.2 3.2 36.8 4.8 52.8s2.4 46.4 2.4 91.2v309.6c0 16-1.6 32-4.8 48l31.2-2.4h88.8c22.4 0 40 0.8 52.8 2.4-25.6-76.8-47.2-142.4-64.8-196.8 46.4-56 67.2-108.8 62.4-158.4z" />
<glyph unicode="&#xe606;" glyph-name="invite" d="M426.8 559.6h103.2v-26.4h-103.2v26.4zM426.8 624.4h103.2v-26.4h-103.2v26.4zM955.8 960h-887.6c-37.6 0-68.2-30.6-68.2-68.2v-887.4c0-37.8 30.6-68.4 68.2-68.4h887.4c37.8 0 68.2 30.6 68.2 68.2v887.6c0.2 37.6-30.4 68.2-68 68.2zM426.8 662.8h21.6c0 1.6 0 4 0 7.2 3.2 17.6 4.8 35.2 4.8 52.8 6.4-1.6 20.8-3.2 43.2-4.8l12-2.4c-4.8-6.4-10.4-17.6-16.8-33.6-1.6-9.6-3.2-16-4.8-19.2h43.2c12.8 0 28 1.6 45.6 4.8-1.6 0-3.2-12.8-4.8-38.4v-117.6c30.4 40 51.2 108 62.4 204 43.2-11.2 64.8-17.6 64.8-19.2-11.2-9.6-24.8-40.8-40.8-93.6h72c12.8-1.6 33.6 0 62.4 4.8v-48l-40.8 4.8c-6.4-68.8-18.4-128-36-177.6 17.6-27.2 40.8-61.6 69.6-103.2l-50.4-33.6c-3.2 4.8-5.6 9.6-7.2 14.4-9.6 27.2-18.4 46.4-26.4 57.6-3.2 6.4-6.4 13.6-9.6 21.6-30.4-48-59.2-84.8-86.4-110.4-20.8 19.2-37.6 32-50.4 38.4 43.2 24 80 63.2 110.4 117.6-25.6 33.6-47.2 60-64.8 79.2l38.4 24c17.6-25.6 28.8-42.4 33.6-50.4 6.4-8 9.6-11.2 9.6-9.6h2.4c11.2 33.6 19.2 77.6 24 132h-60c-12.8-30.4-28-59.2-45.6-86.4-17.6 14.4-28 23.2-31.2 26.4l2.4-14.4-43.2 4.8h-98.4c-11.2 0-25.6-1.6-43.2-4.8h-4.8c0 3.2 0 9.6 0 19.2 1.6 11.2 2.4 20.8 2.4 28.8v91.2c0 16-1.6 29.6-4.8 40.8 17.6-4.8 32.8-7.2 45.6-7.2zM422 413.2c-20.8-1.6-40.8-3.2-60-4.8v40.8c24-4.8 44-6.4 60-4.8h50.4l-24 31.2 48 9.6 16.8-40.8h31.2c16 0 36 1.6 60 4.8v-43.2c-14.4 3.2-34.4 4.8-60 4.8h-69.6l-7.2-31.2h60l45.6 4.8c-8-51.2-14.4-85.6-19.2-103.2-4.8-24-29.6-36.8-74.4-38.4-3.2 17.6-8.8 32-16.8 43.2 25.6-1.6 41.6 3.2 48 14.4s10.4 27.2 12 48h-62.4c-17.6-40-36-72-55.2-96-19.2 11.2-36 18.4-50.4 21.6 36.8 16 63.2 62.4 79.2 139.2h-12zM299.6 679.6c17.6-35.2 33.6-73.6 48-115.2l-50.4-14.4c-14.4 44.8-29.6 82.4-45.6 112.8l48 16.8zM772.4 173.2c-129.6 0-217.6 2.4-264 7.2-52.8 4.8-92 13.6-117.6 26.4-4.8 3.2-11.2 6.4-19.2 9.6-27.2 11.2-43.2 15.2-48 12-9.6-1.6-25.6-20-48-55.2l-43.2 31.2c30.4 30.4 52 51.2 64.8 62.4v187.2c-27.2-3.2-45.6-5.6-55.2-7.2-6.4 0-10.4 0-12 0v52.8c19.2-4.8 38.4-7.2 57.6-7.2h12l43.2 4.8c-3.2-24-4.8-40.8-4.8-50.4v-175.2c80-36.8 157.6-54.4 232.8-52.8 97.6 4.8 172 8 223.2 9.6-11.2-9.6-18.4-28-21.6-55.2z" />
<glyph unicode="&#xe607;" glyph-name="promote" d="M514.4 452.8h93.6v-64.8h-93.6v64.8zM514.4 565.6h93.6v-67.2h-93.6v67.2zM514.4 342.4h93.6v-72h-93.6v72zM955.8 960h-887.6c-37.6 0-68.2-30.6-68.2-68.2v-887.4c0-37.8 30.6-68.4 68.2-68.4h887.4c37.8 0 68.2 30.6 68.2 68.2v887.6c0.2 37.6-30.4 68.2-68 68.2zM632 719.2c16-19.2 32-41.6 48-67.2l-48-24c-11.2 25.6-26.4 47.2-45.6 64.8l45.6 26.4zM418.4 424c-25.6-12.8-44.8-21.6-57.6-26.4v-141.6c3.2-54.4-29.6-81.6-98.4-81.6-4.8 27.2-10.4 45.6-16.8 55.2 52.8-6.4 76.8 5.6 72 36v114.6c-2-1.8-16.4-8-43.2-18.6-9.6-4.8-20-9.6-31.2-14.4l-7.2 57.6c12.8 3.2 40 12.8 81.6 28.8v124.8h-24c-19.2-1.6-33.6-3.2-43.2-4.8-8 0-12.8 0-14.4 0v52.8c12.8-3.2 32-4.8 57.6-4.8h24v64.8c-1.6 22.4-3.2 40-4.8 52.8 0 3.2 0 5.6 0 7.2 46.4-3.2 68-6.4 64.8-9.6 0-3.2-1.6-7.2-4.8-12-8-11.2-12-24-12-38.4v-64.8h19.2c22.4 0 39.2 1.6 50.4 4.8v-52.8c-3.2 0-9.6 0-19.2 0-14.4 3.2-24 4.8-28.8 4.8h-21.6v-112.8c14.4 8 33.6 18.4 57.6 31.2v-52.8zM788 224.8c-1.6 1.6-4 2.4-7.2 2.4-12.8 1.6-38.4 2.4-76.8 2.4h-189.6c0-22.4 1.6-42.4 4.8-60h-55.2c0 1.6 0 3.2 0 4.8 3.2 22.4 4.8 40.8 4.8 55.2v295.2l-4.8-4.8c-3.2-4.8-13.6-20.8-31.2-48-20.8 11.2-36 19.2-45.6 24 52.8 44.8 90.4 118.4 112.8 220.8 40-8 62.4-15.2 67.2-21.6 0-4.8-3.2-9.6-9.6-14.4-9.6-8-17.6-17.6-24-28.8-6.4-12.8-12-24-16.8-33.6-1-4.2-1.6-6.4-2-7.2h174.8c22.4 0 42.4 0.8 60 2.4 11.2 0 18.4 0.8 21.6 2.4v-55.2c-22.4 1.6-50.4 3.2-84 4.8h-33.6v-67.2h26.4c28.8 0 53.6 1.6 74.4 4.8v-55.2c-24 1.6-49.6 3.2-76.8 4.8h-24v-64.8h21.6c28.8 0 55.2 1.6 79.2 4.8v-57.6c-3.2 0-7.2 0-12 0-27.2 4.8-49.6 7.2-67.2 7.2h-21.6v-72h50.4c43.2-1.6 70.4-0.8 81.6 2.4l2.4 2.4v-50.4z" />
<glyph unicode="&#xe608;" glyph-name="answer" d="M417.2 449.2c12.8-1.6 25.6-2.4 38.4-2.4h105.6c6.4 0 15.2 0.8 26.4 2.4-38.4 33.6-65.6 64-81.6 91.2-36.8-43.2-66.4-73.6-88.8-91.2zM390.8 319.6h240v-76.8h-240v76.8zM955.8 960h-887.6c-37.6 0-68.2-30.6-68.2-68.2v-887.4c0-37.8 30.6-68.4 68.2-68.4h887.4c37.8 0 68.2 30.6 68.2 68.2v887.6c0.2 37.6-30.4 68.2-68 68.2zM606.8 727.6c33.6-6.4 49.6-10.4 48-12 0-3.2-2.4-6.4-7.2-9.6-11.2-8-23.2-21.6-36-40.8h112.8c32 0 52.8 0.8 62.4 2.4v-45.6h-2.4c-9.6 1.6-31.2 2.4-64.8 2.4h-45.6c1.6-9.6 6.4-22.4 14.4-38.4 4.8-14.4 9.6-25.6 14.4-33.6l-55.2-9.6c-6.4 36.8-13.6 64-21.6 81.6h-40.8c-8-9.6-18.4-24.8-31.2-45.6-20.8 8-39.2 13.6-55.2 16.8 30.4 19.2 62.4 64.8 96 136.8 3.2-1.6 7.2-3.2 12-4.8zM352.4 727.6c40-9.6 41.6-10.4 4.8-2.4 36.8-8 56-13.6 57.6-16.8 0-3.2-2.4-6.4-7.2-9.6-11.2-8-20.8-20-28.8-36h81.6c32 0 53.6 0.8 64.8 2.4v-43.2c-1.6-1.6-6.4-2.4-14.4-2.4-16 1.6-32 2.4-48 2.4h-38.4c3.2-14.4 11.2-35.2 24-62.4l-55.2-9.6c-1.6 8-6.4 32-14.4 72h-28.8c-32-40-56.8-70.4-74.4-91.2-19.2 17.6-35.2 28.8-48 33.6 54.4 33.6 96 88 124.8 163.2zM681.2 168.4h-52.8c1.6 9.6 2.4 22.4 2.4 38.4h-240c0-14.4 0.8-28.8 2.4-43.2h-52.8c0 3.2 0 12 0 26.4 0 12.8 0.8 28.8 2.4 48v36c-1.6 33.6-3.2 63.2-4.8 88.8 0-1.6 2.4-2.4 7.2-2.4 17.6 0 34.4 0 50.4 0h232.8c14.4 0 29.6 0.8 45.6 2.4 3.2 1.6 5.6 2.4 7.2 2.4-1.6-27.2-2.4-58.4-2.4-93.6v-31.2c0-38.4 0.8-62.4 2.4-72zM794 432.4c-16-14.4-28-32-36-52.8-3.2 0-7.2 0.8-12 2.4-65.6 20.8-108.8 38.4-129.6 52.8v-31.2c-3.2 0-9.6 0-19.2 0-11.2 0-24 0.8-38.4 2.4h-100.8c-16-1.6-29.6-2.4-40.8-2.4s-18.4 0-21.6 0v28.8c-1.6-1.6-4-3.2-7.2-4.8-43.2-27.2-84-49.6-122.4-67.2-9.6 17.6-22.4 32-38.4 43.2-3.2 1.6-4.8 3.2-4.8 4.8 112 25.6 196.8 84.8 254.4 177.6 43.2-8 64.8-12.8 64.8-14.4 0-3.2-2.4-6.4-7.2-9.6 60.8-78.4 149.6-119.2 266.4-122.4 0-1.6-2.4-4-7.2-7.2z" />
<glyph unicode="&#xe609;" glyph-name="chevron-right" d="M811 481.2l-465 465c-18.4 18.4-48 18.4-66.4 0l-66.4-66.4c-18.4-18.4-18.4-48 0-66.4l365.2-365.4-365.4-365.4c-18.4-18.4-18.4-48 0-66.4l66.4-66.4c18.4-18.4 48-18.4 66.4 0l465 465c18.4 18.4 18.4 48 0.2 66.4z" />
<glyph unicode="&#xe60a;" glyph-name="end" d="M704.8 480.6h55.8v-39.4h-55.8v39.4zM518.2 412h80.2v-50.6h-80.2v50.6zM776.4 480.6h56.8v-39.4h-56.8v39.4zM983 678.4h-942c-22.6 0-41-20.6-41-46v-368.6c0-25.4 18.4-46 41-46h942c22.6 0 41 20.6 41 46v368.6c0 25.4-18.4 46-41 46zM412 501.4l9.4 17.6c0.4 0.6 0.8 1.4 1.2 2.6 2.8 5.8 5.8 12.8 9 20.8l2.8 7.6c0.4 0.6 0.6 1.4 1 2.6l2 4.8c0.8 1.8 1.6 3.6 2 5.2l15.8-6.2-17.6-38.6c-6.4-13.6-12.6-25.2-18.4-34.8 3.6 0.4 7 0.6 10.2 0.8 1.2 0 2.6 0 4.2 0.2l3.6 0.2c5.6 0.4 11.2 0.8 16.8 1.2l13 22.6 14.8-7.2c-16.8-28-36.2-54.4-57.6-79.4 17.2 2.8 35.8 6 55.8 9.8v-15.6c-4.8-1-10.4-2-16.8-3l-38.4-7-19-3-5.2 16.6c8.4 7.8 16.4 16.4 24 25.6 6.6 8 13.2 16.8 19.8 26.2-5-0.6-11.6-1.4-20-2.4-0.8 0-1.6 0-2.6-0.2l-19.4-2-3.8 15.2c4.6 5.6 9 12.2 13.4 19.8zM368.4 380.6c-1-6.4-2-11.2-2.8-14.8-2-8.6-5-14.6-9-17.6-3.8-3-10.4-4.6-20-5.4-5.2-0.6-15-0.8-29-1-12.2-0.2-26.8-0.2-43.8 0-34.6 0-59.4 0.4-74.6 1-11.4 0.4-19.2 3.4-23 9.2-2.6 4-3.8 10.4-3.8 19.4v133.8h16.8v-41.4h139.8v67.4h-167v16.8h184.6v-101.2h-157.2v-75.6c0-4.4 0.6-7.4 1.8-8.8 1.4-1.6 4.6-2.4 10-2.8 5.4-0.6 15.2-0.8 29.4-1 12.2-0.2 26.6-0.2 43.2 0 34.2 0 58 0.4 71.6 1 7.4 0.6 11.6 4 13 9.8 1.8 8.6 3.4 20 4.8 34.6l16.8-7.4-1.6-16zM401 348l-4.4 16.2c25 5.2 53.8 12.6 86.2 21.8l0.2-16.2c-24.8-7.6-52.2-15-82-21.8zM615 332.6h-16.6v13.4h-80.2v-13.4h-16.6v94.8h113.4v-94.8zM627.8 510h-62.2v-39.2h58.6v-15.6h-129v15.6h54v39.2h-60.2v15.6h60.2v38.2h16.4v-38.2h62.2v-15.6zM878 348.8c-21.6 10-41 21-58.6 33-16.8 11.4-31 23.2-43 35.4v-86.8h-15.8v86.6c-27.2-27-61.2-49.8-102.4-68.6l-8.2 15c19.8 8.6 38.4 18.2 56 29 18.8 11.4 33.8 22.8 45 33.8h-62.2v70.2h71.6v23.6h-103.2v15.8h103.2v30h15.8v-30h102.2v-15.8h-102.2v-23.6h72.8v-70.2h-62.4c20.4-20.6 53.6-41.2 99.8-61.8l-8.4-15.6z" />
<glyph unicode="&#xe60b;" glyph-name="promoted" d="M508 452.6h43.8v-36.4h-43.8v36.4zM508 503h43.8v-36h-43.8v36zM508 402h43.8v-42.6h-43.8v42.6zM983 678.4h-942c-22.6 0-41-20.6-41-46v-368.6c0-25.4 18.4-46 41-46h942c22.6 0 41 20.6 41 46v368.6c0 25.4-18.4 46-41 46zM554.2 563.8l10.8-18c3.6-6.4 6.8-12.4 9.4-18.2l-14.4-7.4c-3.2 7.2-6.2 13.4-9 18.6-3.2 6.4-6.6 12.4-10 18.4l13.2 6.6zM231.6 532.2h54.6v30.4h15.6v-30.4h55v-15.4h-55v-34.6h67.6v-15.2h-149v15.2h65.8v34.6h-54.6v15.4zM202.2 562l12.6-9.2c-16.4-25-37.6-47.6-63.8-68.2l-9.8 12.6c23 18.4 43.2 40 61 64.8zM196.8 459.2v-129.8h-15.6v113.2c-5.2-5.2-10-9.6-14.4-13.6-5.4-5-11.4-10.2-18-15.8l-10.4 12.2c28.2 23.4 52.8 49.4 73.8 78l12.8-9c-4.8-6.8-9.4-13-14-18.6-3.8-4.6-8.4-10.2-14.2-16.6zM270 364l-15.2 18.2c-6 6.6-12.2 13.2-19 19.4l11.2 10.6 19.4-19.4c6.4-6.4 12.6-13 18.6-20.2l-12.8-11.6c-0.2 0.8-1 1.8-2.2 3zM372.4 423h-36.6v-66c0-15.4-7.4-23-22-23-9.2 0-21.2 1-36 3l-1.6 17c6.6-1.4 13.6-2.4 20.8-3 6-0.6 11.6-0.8 16.8-0.8 4.2 0 6.4 2.4 6.4 7v66h-108.2v15.6h108.2v22.8h15.6v-22.8h36.6v-15.8zM465.2 431.2c-4-1.8-9.2-3.8-16.2-6.2v-70.6c0-8.8-1.8-15-5.2-18.2-3-3-8.6-4.4-16.8-4.4-6 0-13.8 0.6-23.4 1.8l-1.6 15.8c10-1.4 18.4-2 24.8-2 4.8 0 7.2 2.2 7.2 7v65c-9.8-3.4-21.6-7-35.4-10.8l-5.4 15.6c14.2 3.4 27.8 7.2 40.8 11.2v62.2h-38v14.8h38.2v51.2h14.8v-51.2h30.4v-14.8h-30.4v-57l14.8 5.4c5.6 2 11 4.2 16.2 6.4l1.6-14c-5-2.6-10.4-4.8-16.4-7.2zM626.4 344.6h-118.4v-15.6h-15.6v153.4l-2-3.8c-0.6-1.6-1.4-2.8-2-3.8l-4.4-8c-3.4-5.8-6.8-11-10-15.6l-12 9.8c9.8 13.4 19 29.6 27.2 48.4 7.6 17.2 13.8 35.6 19 55.4l14.6-4.6c-4.2-15.8-8.6-30-13-42.2h111.2v-14.6h-54v-36h50.6v-14.4h-50.6v-36.4h50.6v-14.4h-50.6v-42.6h60v-15zM879.6 518.6h-186.8v-74.4c0-42.6-9.6-80.8-29-114.2l-15.8 8.2c18.4 31.6 27.6 67 27.6 106.2v91.4h96.8c-1.4 2.8-3.2 6-5.4 9.8l-7.6 13.6 15.6 8c6.2-10.8 11.6-21.2 16.4-31.2h88.4v-17.4z" />
<glyph unicode="&#xe60c;" glyph-name="promotion" d="M689.2 503.4h70.2v-70.6h-70.2v70.6zM252 402h43.8v-42.6h-43.8v42.6zM252 503h43.8v-36h-43.8v36zM252 452.6h43.8v-36.4h-43.8v36.4zM983 678.4h-942c-22.6 0-41-20.6-41-46v-368.6c0-25.4 18.4-46 41-46h942c22.6 0 41 20.6 41 46v368.6c0 25.4-18.4 46-41 46zM298.2 563.8l10.8-18c3.6-6.4 6.8-12.4 9.4-18.2l-14.4-7.4c-3.2 7.2-6.2 13.4-9 18.6-3.2 6.4-6.6 12.4-10 18.4l13.2 6.6zM209.2 431.2c-4-1.8-9.4-3.8-16.2-6.2v-70.6c0-8.8-1.8-15-5.2-18.2-3-3-8.6-4.4-16.8-4.4-6 0-13.8 0.6-23.4 1.8l-1.6 15.8c10-1.4 18.4-2 24.8-2 4.8 0 7.2 2.4 7.2 7v65c-9.8-3.4-21.6-7-35.4-10.8l-5.4 15.6c14.2 3.4 27.8 7.2 40.6 11.2v62.2h-37.8v14.8h38.2v51.2h14.8v-51.2h30.4v-14.8h-30.4v-57l14.8 5.4c5.6 2 11 4.2 16.2 6.4l1.6-14c-5-2.6-10.4-4.8-16.4-7.2zM370.4 344.6h-118.4v-15.6h-15.6v153.4l-2-3.8c-0.6-1.6-1.4-2.8-2-3.8l-4.4-8c-3.4-5.8-6.8-11-10-15.6l-12 9.8c9.8 13.4 19 29.6 27.2 48.4 7.6 17.2 13.8 35.6 19 55.4l14.6-4.6c-4.2-15.8-8.6-30-13-42.2h111.2v-14.6h-54v-36h50.6v-14.4h-50.6v-36.4h50.6v-14.4h-50.6v-42.6h60v-15zM623.6 518.6h-186.8v-74.4c0-42.6-9.6-80.8-29-114.2l-15.8 8.2c18.4 31.6 27.6 67 27.6 106.2v91.4h96.8c-1.4 2.8-3.2 6-5.4 9.8l-7.6 13.6 15.6 8c6.2-10.8 11.6-21.2 16.4-31.2h88.4v-17.4zM864.2 398.4h-17.4v17.6h-69.8v-85.8h-17.6v85.8h-70.2v-16.6h-17.2v120.6h87.2v43h17.6v-43h87.2v-121.6zM777 503.4h69.8v-70.6h-69.8v70.6z" />
<glyph unicode="&#xe60d;" glyph-name="arrow-circle-right" d="M512 960c-282.8 0-512-229.2-512-512s229.2-512 512-512c282.8 0 512 229.2 512 512s-229.2 512-512 512zM589.4 175h-134.6l224.6 224.6h-517.6v96.2h517.8l-224.6 224.6 133.8 0.6 273.4-273.4-272.8-272.6z" />
<glyph unicode="&#xe60e;" glyph-name="arrow-right" d="M624.2 847.2l-195.6-1 328.4-328.4h-757v-140.6h757l-328.4-328.4h196.6l398.8 398.6z" />
<glyph unicode="&#xe60f;" glyph-name="check" d="M949 788.4l-568-524.6-299.8 324.6-81.2-75 374.8-405.8 649.2 599.6z" />
<glyph unicode="&#xe610;" glyph-name="toggle-off_1" d="M716.8 755.2h-409.6c-169.6 0-307.2-137.6-307.2-307.2s137.6-307.2 307.2-307.2h409.6c169.6 0 307.2 137.6 307.2 307.2s-137.6 307.2-307.2 307.2zM307.2 161.2c-158.4 0-286.8 128.4-286.8 286.8s128.4 286.8 286.8 286.8 286.8-128.4 286.8-286.8c0-158.4-128.4-286.8-286.8-286.8z" />
<glyph unicode="&#xe611;" glyph-name="envelope" d="M1013.4 565.6l-338.2-236.2c-5.6-3.8-15.2-9.4-21.2-12.2 0 0-88.8-40.2-142.6-40.2-54 0.2-142.6 40.2-142.6 40.2-6.2 2.8-15.8 8.2-21.2 12.2l-338 236.2c-5.6 3.8-10 1.6-10-5.2v-467.6c0-6.8 5.6-12.2 12.2-12.2h999.4c6.8 0 12.2 5.6 12.2 12.2v467.6c0 6.8-4.6 9.2-10 5.2zM1011.2 818.4h-999.4c-6.8 0-12.2-5.6-12.2-12.2v-77.6c0-6.8 4.6-15.4 10-19.4l404.6-282.8c5.6-3.8 15.2-9.4 21.2-12.2 0 0 42.4-19.4 76-19.2 33.2 0 75.8 19.2 75.8 19.2 6.2 2.8 15.8 8.2 21.2 12.2l404.8 282.8c5.6 3.8 10 12.6 10 19.4v77.6c0.2 6.8-5.2 12.2-12 12.2z" />
<glyph unicode="&#xe612;" glyph-name="refresh" d="M698 182.6c-56.4-39.6-122.4-59.4-189.8-58.4-9 0.2-17.8 0.6-26.6 1.4-3.6 0.4-7.2 1-10.8 1.4-7 1-13.8 1.8-20.6 3.2-4.2 0.8-8.2 1.8-12.2 2.8-6.6 1.6-13.2 3-19.6 5-3.2 1-6.2 2-9.2 3-7.4 2.4-14.8 5-22 8-1.6 0.6-3.2 1.4-4.8 2.2-8.4 3.6-16.6 7.6-24.8 12-0.4 0.2-0.8 0.4-1 0.6-27.2 15-52 33.6-73.8 55.2-0.4 0.4-0.6 0.8-1 1.2-6.8 6.8-13.2 13.8-19.4 21.2-1.2 1.6-2.6 3.2-3.8 4.8-44.4 55.4-71 125.6-71 202h85.4l-136.4 204.8-136.6-204.8h85.4c0-89.8 28-173 75.6-241.8 0.6-1 1-2 1.6-3 5-7 10.4-13.6 15.6-20.2 2-2.6 3.8-5.2 5.8-7.6 7.8-9.4 16-18.4 24.6-27 0.8-0.8 1.6-1.6 2.4-2.4 28.6-28.6 60.8-52.6 95.8-71.8 1-0.6 1.8-1.2 2.8-1.6 10-5.4 20.4-10.4 31-15 2.6-1.2 5.2-2.4 7.8-3.4 9-3.8 18.2-7 27.6-10.2 4.4-1.6 8.8-3 13.2-4.4 8.2-2.4 16.4-4.4 24.8-6.4 5.6-1.2 11.2-2.6 16.8-3.8 2.4-0.4 4.6-1.2 6.8-1.6 8-1.4 15.8-2.2 23.8-3.2 2.8-0.4 5.6-0.8 8.6-1.2 14.2-1.4 28.4-2.4 42.6-2.4 86.8 0 171.4 26.6 244 77.4 23.2 16.2 28.8 48.2 12.6 71.2-16.2 23.4-48 29-71.2 12.8zM938.8 448.2c0 89.6-27.8 172.6-75.2 241.2-0.6 1.2-1.2 2.4-2 3.4-5.8 8.4-12.2 16.2-18.6 24-0.8 1-1.4 2-2.2 3-43.2 52.6-97.6 93.2-159.2 119.6-1.6 0.8-3.4 1.6-5 2.4-9.8 4-19.8 7.6-30 11-3.6 1.2-7.2 2.6-11 3.6-8.8 2.6-17.8 4.8-26.8 7-5 1.2-10 2.4-15 3.4-2.4 0.4-4.8 1.2-7.4 1.6-6.8 1.2-13.6 1.6-20.2 2.6-4.6 0.6-9.2 1.2-14 1.8-11.4 1-22.6 1.6-33.8 1.8-2 0-4 0.4-6 0.4-0.4 0-0.8-0.2-1-0.2-86.6 0-171-26.2-243.6-77-23.2-16.2-28.8-48.2-12.6-71.2 16.2-23.2 48.2-28.8 71.4-12.6 56 39.2 121.4 59 188.4 58.4 9.6 0 19.2-0.6 28.4-1.4 2.8-0.4 5.8-0.8 8.6-1 7.8-1 15.4-2 22.8-3.6 3.4-0.6 6.6-1.6 9.8-2.2 7.4-1.6 14.8-3.4 22-5.6 2.2-0.8 4.6-1.6 6.8-2.2 8.2-2.6 16.4-5.6 24.4-9 0.8-0.4 1.6-0.8 2.4-1 47.8-20.6 89.6-52.2 122.2-91.6 0.2-0.2 0.4-0.6 0.6-0.8 46-56 73.6-127.4 73.6-205.4h-85.4l136.6-204.8 136.2 204.4h-85.2z" />
<glyph unicode="&#xe613;" glyph-name="pie-chart" d="M471.6 879.2c-260.4 0-471.6-211-471.6-471.4 0-260.6 211.2-471.8 471.6-471.8s471.6 211.2 471.6 471.6h-471.6v471.6zM551.8 960v-471.6h471.6c0 260.6-211.2 471.6-471.6 471.6z" />
<glyph unicode="&#xe614;" glyph-name="share" d="M0 44c5 345.2 226.8 643.2 557.4 743.8 60 18.2 92 45.8 81.6 112-3 20.2-7 47.4 19 57.8 22.4 8.8 36.8-11 51.8-23.8 92.2-78.2 184.8-156 276-235.2 51-44.4 50.8-65.6-0.8-110.2-91.2-79.2-183.8-157-276-235.2-15-12.8-29.6-32.2-52.2-22.8-23 9.6-17.8 33.8-18.6 53.4-3.4 87.8-3.2 88.6-87.2 74-258.4-45.4-403.4-212.4-483-450.4-9.2-27.4-5.8-76-44.6-70.8-27 4.4-23.4 51.4-23.2 80 0.2 9-0.2 18.2-0.2 27.4z" />
<glyph unicode="&#xe615;" glyph-name="caret-up" d="M44 185.8c-46.8 0-58.2 27.2-25.4 60.6l433.4 439c32.8 33.2 86.6 33.2 119.6 0l433.4-439c32.8-33.2 21.4-60.6-25.4-60.6h-935.6z" />
<glyph unicode="&#xe616;" glyph-name="caret-down" d="M44 710.2c-46.8 0-58.2-27.2-25.4-60.6l433.4-439c32.8-33.2 86.6-33.2 119.6 0l433.4 439c32.8 33.2 21.4 60.6-25.4 60.6h-935.6z" />
<glyph unicode="&#xe617;" glyph-name="toggle-on" d="M716.8 755.2h-409.6c-169.6 0-307.2-137.6-307.2-307.2s137.6-307.2 307.2-307.2h409.6c169.6 0 307.2 137.6 307.2 307.2s-137.6 307.2-307.2 307.2zM716.8 161.2c-158.4 0-286.8 128.4-286.8 286.8s128.4 286.8 286.8 286.8 286.8-128.4 286.8-286.8-128.4-286.8-286.8-286.8z" />
<glyph unicode="&#xe618;" glyph-name="toggle-off" d="M716.8 755.2h-409.6c-169.6 0-307.2-137.6-307.2-307.2s137.6-307.2 307.2-307.2h409.6c169.6 0 307.2 137.6 307.2 307.2s-137.6 307.2-307.2 307.2zM20.4 448c0 158 128.6 286.8 286.8 286.8 158 0 286.8-128.6 286.8-286.8 0-158-128.6-286.8-286.8-286.8-158 0-286.8 128.8-286.8 286.8zM716.8 161.2h-300c115.4 44.2 197.6 155.8 197.6 286.8s-82.2 242.6-197.6 286.8h300c158 0 286.8-128.6 286.8-286.8 0-158-128.8-286.8-286.8-286.8z" />
<glyph unicode="&#xe619;" glyph-name="star_1" d="M512.2 935.4l143-349.8 369-22-294.2-251.8 98.8-349.8-294.4 185.6-338.6-185.6 98.8 349.8-294.4 251.8 369.2 22z" />
<glyph unicode="&#xe61a;" glyph-name="blank" d="M388.4 767.4c-8.6 20.8-33.8 37.8-56.4 37.8h-22.6c-22.4 0-47.4-17.2-55.6-38.2l-251.6-655.2c-8-21 3.8-38.2 26.2-38.2h21.2c22.4 0 47.2 17.2 54.8 38.4l52.6 144.8c7.6 21.2 32.4 38.4 54.8 38.4h224.2c22.4 0 47.4-17.2 55.6-38.2l56-145.4c8-21 33-38.2 55.6-38.2h28.6c22.4 0 34 17 25.4 37.8l-268.8 656.2zM406 374h-166.4c-22.4 0-34.4 17.2-26.6 38.2l66 176.4c17 46.2 30.2 92.8 39.4 139.8 11.2-39.6 38-113.2 38-113.2 7.6-21.2 20.4-55.6 28.4-76.6l47.6-126.2c8-21.2-4-38.4-26.4-38.4zM980 889.8c-24 0-43.6-10.8-43.6-24.2v-821.6c0-13.4 19.4-24.2 43.6-24.2 24 0 43.6 10.8 43.6 24.2v821.6c0 13.4-19.6 24.2-43.6 24.2z" />
<glyph unicode="&#xe61b;" glyph-name="list-ol" d="M1004.4 783.8h-704.6c-10.8 0-19.6-4.2-19.6-9.2v-55.8c0-5.2 8.8-9.2 19.6-9.2h704.6c10.8 0 19.6 4.2 19.6 9.2v55.8c0 5-8.8 9.2-19.6 9.2zM1004.4 483h-704.6c-10.8 0-19.6-4.2-19.6-9.2v-55.8c0-5.2 8.8-9.2 19.6-9.2h704.6c10.8 0 19.6 4.2 19.6 9.2v55.8c0 5-8.8 9.2-19.6 9.2zM1004.4 182h-704.6c-10.8 0-19.6-4.2-19.6-9.2v-55.8c0-5.2 8.8-9.2 19.6-9.2h704.6c10.8 0 19.6 4.2 19.6 9.2v55.8c0 5.2-8.8 9.2-19.6 9.2zM80.4 822.4v-170.8h28.2v202.2h-8.4l-79-23.8 6.2-22.6zM68 531.2c27.6 0 46-14.2 46-39.2 0-6.8-2-13.6-6.2-20.8-3.8-6.8-7.8-12.2-11.2-15.8-3.2-3.2-9.6-9.6-18.8-18.2l-71-67.6v-18.8h140v25.6h-99l44 38.6c17 15.8 29.8 29.4 38.4 41.6s13 25.2 13 39c0 17.8-6.2 32.8-18.4 44.4s-29.8 17.6-52 17.6c-24 0-46.4-5.4-67-15.8l6.8-24c21 9 39.4 13.4 55.4 13.4zM83.4 164.4h-4.4l62.2 70.4v17.2h-133.2v-25.6h94.2l-63.4-72.2v-13.4h32.4c30 0 48.4-12.2 48.4-32.6 0-11-4.8-20.2-14-27.6-9.2-7.2-20.6-10.6-34.2-10.6-20 0-40.8 4.8-61.8 14.6l-9.6-22.4c21.8-11 45.2-16.8 70.8-16.8 24 0 43.2 5.6 56.8 17.2 14 11.6 20.8 27 20.8 46.4 0 32.2-24.6 53-65 55.4z" />
<glyph unicode="&#xe61c;" glyph-name="radiobuttonlist" d="M166 838.8h-142c-13 0-23.6-10.6-23.6-23.6v-142c0-13 10.6-23.6 23.6-23.6h142c13 0 23.6 10.6 23.6 23.6v142c0 13-10.6 23.6-23.6 23.6zM153.2 686h-116.4v116.4h116.6v-116.4zM1005 838.8h-690.6c-10.6 0-19.2-10.6-19.2-23.6v-142c0-13 8.6-23.6 19.2-23.6h690.6c10.6 0 19.2 10.6 19.2 23.6v142c0 13-8.6 23.6-19.2 23.6zM987.8 686h-656v116.4h656v-116.4zM166 544h-142c-13 0-23.6-10.6-23.6-23.6v-142c0-13 10.6-23.6 23.6-23.6h142c13 0 23.6 10.6 23.6 23.6v142c0 13-10.6 23.6-23.6 23.6zM314.4 354.6h690.6c10.6 0 19.2 10.6 19.2 23.6v142c0 13-8.6 23.6-19.2 23.6h-690.6c-10.6 0-19.2-10.6-19.2-23.6v-142c0-13 8.6-23.6 19.2-23.6zM166 249h-142c-13 0-23.6-10.6-23.6-23.6v-142c0-13 10.6-23.6 23.6-23.6h142c13 0 23.6 10.6 23.6 23.6v142c0 13-10.6 23.6-23.6 23.6zM153.2 96.2h-116.4v116.4h116.6v-116.4zM1005 249h-690.6c-10.6 0-19.2-10.6-19.2-23.6v-142c0-13 8.6-23.6 19.2-23.6h690.6c10.6 0 19.2 10.6 19.2 23.6v142c0 13-8.6 23.6-19.2 23.6zM987.8 96.2h-656v116.4h656v-116.4z" />
<glyph unicode="&#xe61d;" glyph-name="chevron-up" d="M1009.6 283l-465 465c-2.2 2.2-4.8 4.2-7.4 6s-5.4 3.2-8.2 4.2c-11.4 4.6-24 4.6-35.4 0-2.8-1.2-5.6-2.6-8.2-4.2-2.6-1.8-5-3.8-7.4-6l-464.8-465c-18.4-18.4-18.4-48 0-66.4l66.4-66.4c18.4-18.4 48-18.4 66.4 0l365.4 365.4 365.4-365.4c18.4-18.4 48-18.4 66.4 0l66.4 66.4c18.4 18.4 18.4 48.2 0 66.4z" />
<glyph unicode="&#xe61e;" glyph-name="star" d="M512 923.8l158.2-313.2 353.8-50.2-256-244 60.4-344.2-316.4 162.6-316.4-162.6 60.4 344.2-256 244 353.8 50.2z" />
<glyph unicode="&#xe61f;" glyph-name="4" d="M549 367.6v264.4l-183.6-264.4zM512 960c-282.8 0-512-229.2-512-512s229.2-512 512-512c282.8 0 512 229.2 512 512s-229.2 512-512 512zM700.2 301.6h-79.2v-140.4h-72v140.4h-254.4v66l267.6 380h58.8v-380h79.2v-66z" />
<glyph unicode="&#xe620;" glyph-name="3" d="M512 960c-282.8 0-512-229.2-512-512s229.2-512 512-512c282.8 0 512 229.2 512 512s-229.2 512-512 512zM646.6 204.2c-37.4-35.6-84.6-53.4-141.6-53.4-51.4 0-94.2 15.4-128.2 46s-53.4 70.4-58.2 119.2l72 9.6c8.2-40.8 22.4-70.2 42.2-88.2s44-27 72.6-27c33.8 0 62.4 11.8 85.8 35.2s35 52.6 35 87.2c0 33-10.8 60.4-32.4 81.8s-49 32.2-82.4 32.2c-13.6 0-30.6-2.6-50.8-8l8 63.2c4.8-0.6 8.6-0.8 11.6-0.8 30.6 0 58.2 8 82.8 24s36.8 40.6 36.8 74c0 26.4-9 48.2-26.8 65.6s-41 26-69.2 26c-28 0-51.4-8.8-70-26.4s-30.6-44-36-79.2l-72 12.8c8.8 48.2 28.8 85.6 60 112.2s70 39.8 116.4 39.8c32 0 61.4-6.8 88.4-20.6s47.6-32.4 61.8-56.2c14.2-23.8 21.4-49 21.4-75.6 0-25.4-6.8-48.4-20.4-69.2s-33.8-37.4-60.4-49.6c34.6-8 61.6-24.6 80.8-49.8s28.8-56.8 28.8-94.6c0-51.2-18.6-94.6-56-130.2z" />
<glyph unicode="&#xe621;" glyph-name="2" d="M512 960c-282.8 0-512-229.2-512-512s229.2-512 512-512c282.8 0 512 229.2 512 512s-229.2 512-512 512zM696.6 161.2h-387.6c-0.6 17.4 2.2 34 8.4 50 9.8 26.4 25.6 52.4 47.4 78s53.2 55.2 94.2 88.8c63.8 52.2 106.8 93.6 129.2 124.2s33.6 59.4 33.6 86.6c0 28.6-10.2 52.6-30.6 72.2s-47 29.4-79.8 29.4c-34.6 0-62.4-10.4-83.2-31.2s-31.4-49.6-31.6-86.4l-74 7.6c5 55.2 24.2 97.2 57.2 126.2s77.4 43.4 133.2 43.4c56.2 0 100.8-15.6 133.6-46.8s49.2-69.8 49.2-116c0-23.4-4.8-46.6-14.4-69.2s-25.6-46.6-47.8-71.6c-22.2-25-59.2-59.4-111-103.2-43.2-36.2-71-60.8-83.2-73.8s-22.4-26-30.4-39h287.6v-69.2z" />
<glyph unicode="&#xe622;" glyph-name="1" d="M512 960c-282.8 0-512-229.2-512-512s229.2-512 512-512c282.8 0 512 229.2 512 512s-229.2 512-512 512zM555.2 161.2h-72v458.8c-17.4-16.6-40-33-68.2-49.6s-53.4-29-75.8-37.2v69.6c40.2 19 75.4 41.8 105.6 68.8s51.4 53 64 78.4h46.4v-588.8z" />
<glyph unicode="&#xe623;" glyph-name="trash" d="M821.8 620.6h-621.6c-5 0-9.4-0.6-14-2-15.8-4.4-27.6-16-27.6-29.8l-0.6-124.6-3.4-496.2c0-17.6 18.4-31.8 41.2-31.8h621.6c23 0 41.8 14.4 41.8 31.8l3.8 620.8c0.4 17.4-18.2 31.8-41.2 31.8zM349.2 80.2h-86.8v356.8h86.8v-356.8zM552.2 80.2h-86.8v356.8h86.8v-356.8zM755.6 80.2h-86.8v356.8h86.8v-356.8zM900.8 847.2h-190.6c-22.8 0-41.4 14.4-41.4 32.2v48.4c0 17.6-18.6 32.2-41.4 32.2h-231.6c-22.8 0-41.6-14.4-41.6-32.2l-0.2-48.6c0-17.6-18.8-32.2-41.6-32.2h-190.6c-22.8 0-41.4-14.4-41.4-32.2v-86.6c0-17.6 18.6-32.2 41.4-32.2h779.2c22.8 0 41.4 14.4 41.4 32.2v86.8c-0.2 17.6-18.8 32.2-41.6 32.2z" />
<glyph unicode="&#xe624;" glyph-name="sort" d="M132.2 526.2h757.6c46.4 0 57.6 27 25 60l-344.8 349c-32.6 33-85.8 33-118.2 0l-344.8-349.2c-32.4-32.8-21.2-59.8 25.2-59.8zM889.8 369.8h-757.6c-46.4 0-57.6-27-25-60l344.8-349.2c32.6-33 85.8-33 118.2 0l344.6 349.4c32.6 32.8 21.2 59.8-25 59.8z" />
<glyph unicode="&#xe625;" glyph-name="logicalcontrol" d="M118.2 675.6h176.6c43.4 0 78.8 35.4 78.8 78.8v126.8c0 43.4-35.6 78.8-78.8 78.8h-176.6c-43.4 0-78.8-35.4-78.8-78.8v-126.8c0-43.4 35.4-78.8 78.8-78.8zM294.8 590.2h-176.6c-43.4 0-78.8-35.4-78.8-78.8v-126.8c0-43.4 35.4-78.8 78.8-78.8h176.6c43.4 0 78.8 35.4 78.8 78.8v126.8c0 43.4-35.6 78.8-78.8 78.8zM294.8 384.6h-176.6v126.8h176.6v-126.8zM294.8 220.4h-176.6c-43.4 0-78.8-35.4-78.8-78.8v-126.8c0-43.4 35.4-78.8 78.8-78.8h176.6c43.4 0 78.8 35.4 78.8 78.8v126.8c0 43.4-35.6 78.8-78.8 78.8zM294.8 14.8h-176.6v126.8h176.6v-126.8zM551.8 960c0 0 509.6-284.4 122.6-739.6l-133.6 113.8c-36.8 0-33.4-25.6-33.4-56.8v-284.4c0-31.2 30-56.8 66.8-56.8h334.2c36.8 0 66.8-2.8 66.8 28.4l-109.4 93.2c-0.2-0.2 418.4 554.4-314 902.2z" />
<glyph unicode="&#xe626;" glyph-name="copy" d="M947.8 793h-133.2v128c0 21.4-17.6 39-39 39h-701c-21.6 0-39-17.6-39-39v-779.2c0-21.4 17.6-39 39-39h133.2v-128c0-21.4 17.6-39 39-39h701.2c21.4 0 39 17.6 39 39v779.4c-0.2 21.4-17.8 38.8-39.2 38.8zM768.6 171.8c-4.6-2-9.6-3-14.8-3h-313.2c-1.4 0-2.6 0-4 0.2-0.4 0-0.6 0.2-1 0.2-1 0.2-2 0.2-3 0.4-0.2 0-0.6 0.2-0.8 0.2-1 0.2-2 0.4-3 0.8-0.2 0-0.4 0.2-0.6 0.2-1 0.4-2 0.8-3 1.2-0.2 0-0.2 0.2-0.4 0.2-1 0.4-2.2 1-3.2 1.6 0 0 0 0-0.2 0-3.2 2-6.2 4.2-8.8 7-6.4 7-10.6 16.4-10.6 26.8 0 21.6 17 39 38.2 39h313.2c11.2 0 21.2-5 28.2-12.8 6.2-7 10-16.2 10-26.2 0-10.8-4.2-20.4-11.2-27.6-1.8-1.8-3.6-3.4-5.6-4.8-1.6-1.2-3.8-2.4-6.2-3.4zM775.2 553.8c2-1.4 4-3 5.6-4.8 7-7 11.2-16.8 11.2-27.6s-4.2-20.4-11.2-27.6c-1.8-1.8-3.6-3.4-5.6-4.8s-4.2-2.6-6.4-3.6c-4.6-2-9.6-3-14.8-3h-313.4c-21 0-38.2 17.4-38.2 39s17 39 38.2 39h313.2c5.2 0 10.2-1 14.8-3 2.4-1 4.6-2.2 6.6-3.6zM440.6 404.6h313.2c11.2 0 21.2-5 28.2-12.8 6.2-7 10-16.2 10-26.2 0-10.8-4.2-20.4-11.2-27.6-1.8-1.8-3.6-3.4-5.6-4.8s-4.2-2.6-6.4-3.6c-4.6-2-9.6-3-14.8-3h-313.4c-21 0-38.2 17.4-38.2 39s17 39 38.2 39zM152.4 180.8c-21.4 0-39 17.6-39 39v623.4c0 21.4 17.6 39 39 39h545.4c21.4 0 39-17.6 39-39v-50h-490.2c-21.4 0-39-17.6-39-39v-573.2h-55.2z" />
<glyph unicode="&#xe627;" glyph-name="pencil" d="M808.6 590.6l-228.4 171.8c-15.4 9-37 5.8-47.8-7l-442.4-527.2c-10.8-13-19.2-36.4-18.4-52.2l-29.4-182.6c0.8-15.8 54-62.8 72-58l208 55.8c18 4.8 41.6 19.4 52.4 32.2l442.4 527.2c11 13 7.2 31-8.4 40zM968 782l-228.6 171.8c-15.4 9-37 5.8-47.8-7l-63-75.2c-10.8-13-7-31 8.4-40l228.6-171.8c15.4-9 37-5.8 47.8 7l63 75.2c10.8 13 7 31-8.4 40z" />
<glyph unicode="&#xe628;" d="M1023-11.8c0-28.2-23-51.2-51.2-51.2h-921.6c-28.2 0-51.2 23-51.2 51.2v921.6c0 28.2 22.8 51.2 51.2 51.2h921.6c28.2 0 51.2-23 51.2-51.2v-921.6z" />
<glyph unicode="&#xe629;" d="M815 750.2l-351-483.2-276.2 200.6-50.2-69 345.2-250.8 401.4 552.2z" />
<glyph unicode="&#xe62a;" glyph-name="square" d="M1024-11.8c0-28.2-23-51.2-51.2-51.2h-921.6c-28.4 0-51.2 22.8-51.2 51.2v921.6c0 28.2 22.8 51.2 51.2 51.2h921.6c28.2 0 51.2-23 51.2-51.2v-921.6z" />
<glyph unicode="&#xe62b;" glyph-name="times" d="M637.6 448.6l360.2 360.2c26 26 32.8 61.2 15.4 78.8l-63.2 63.4c-17.4 17.4-52.8 10.6-78.8-15.4l-360.2-360.4-360.4 360.4c-26 26-61.2 32.8-78.6 15.4l-63.4-63.4c-17.4-17.4-10.6-52.8 15.4-78.8l360.2-360.2-360.2-360.2c-26-26-32.8-61.2-15.4-78.8l63.4-63.4c17.4-17.4 52.8-10.6 78.8 15.4l360.2 360.4 360.2-360.2c26-26 61.2-32.8 78.8-15.4l63.4 63.4c17.4 17.4 10.6 52.8-15.4 78.8l-360.4 360z" />
<glyph unicode="&#xe62c;" glyph-name="times-circle" d="M511 960.6c-282.8 0-512-229.2-512-512s229.2-512 512-512 512 229.2 512 512-229.2 512-512 512zM801 287.6c17.8-17.8 17.8-46.6 0-64.4l-64.4-64.4c-17.8-17.8-46.6-17.8-64.4 0l-161 161-161-161c-17.8-17.8-46.6-17.8-64.4 0l-64.4 64.4c-17.8 17.8-17.8 46.6 0 64.4l161 161-161 161c-17.8 17.8-17.8 46.6 0 64.4l64.4 64.4c17.8 17.8 46.6 17.8 64.4 0l161-161 161 161c17.8 17.8 46.6 17.8 64.4 0l64.4-64.4c17.8-17.8 17.8-46.6 0-64.4l-161-161 161-161z" />
<glyph unicode="&#xe62d;" glyph-name="chevron-down" d="M611.6 282c18.4-18.4 18.4-48 0-66.4l-66.4-66.4c-18.4-18.4-48-18.4-66.4 0l-465 464.8c-18.4 18.4-18.4 48 0 66.4l66.4 66.4c18.4 18.4 48 18.4 66.4 0l465-464.8zM545.2 149c-18.4-18.4-48-18.4-66.4 0l-66.4 66.4c-18.4 18.4-18.4 48 0 66.4l465 465c18.4 18.4 48 18.4 66.4 0l66.4-66.4c18.4-18.4 18.4-48 0-66.4l-465-465z" />
<glyph unicode="&#xe62e;" glyph-name="marriage" d="M338.8 94.2c-132.4-4.8-234.4 109.6-230.4 234 3.8 120.8 111 221.2 229.4 214.8 129.6-7 221.8-117.4 209.2-250.4-5.6-58.6 16.6-89.8 77.2-106.6 37.4 77 40.6 157 14.8 236.8-40.2 124.2-133.2 193.2-261 226.4 49.4 64.2 136.8 178 136.8 178l-96 71.8-188.2-1.6-85.4-73.6c0 0 43.8-57 66.4-85.8 22.2-28.4 44.6-56.8 68-86.6-238.8-87.8-334.2-269.6-247.8-462.8 72.4-161.4 273-240.2 420.4-160.4-67 60.2-32.4 69.6-113.4 66zM977.8 490.2c-82 137.4-248.2 193.6-402.2 133.4 60.6-70.4 60.6-70.4 145.8-82.4 121.8-17.2 210-125.4 195.6-239.8-15.6-123.8-122-209.4-244.8-196.8-119.2 12.2-209.2 123.2-191 247.4 9.6 66-28.6 87.2-71.4 114.2-73-130.6-37-298.4 81.4-396 122.2-100.6 303.2-97.2 421.6 7.8 119.4 105.8 146.2 276 65 412.2z" />
<glyph unicode="&#xe62f;" glyph-name="income" d="M347.4 673.8c4-8 10.6-18 18.2-20.6 35.6-12 51.2-34.6 110.2-33.2s78.6 21.6 116.2 34.8c8.2 2.8 17.2 16.4 17.8 25.4 3 58.8 17.2 113.8 42.6 167 6.8 14.2 11.4 39.4 0.2 52.2-5 5.8-39 0.4-54.8-7.2-40.8-19.6-49.6-16.8-68.4 20.4-5.6 11-11.8 22.6-20.8 30.6-16.8 15-35.4 27.6-54.6 1.6-11-15-21.6-30.2-34-43.8-8.4-9.4-18.4-20.8-29.6-23.8-18.6-5.2-39-6.4-58.4-5.6-66 2.6-60.6-30.8-43.4-71.8 18.4-42.6 38.6-84.2 58.8-126zM896.6 436.6c-50.6 72.2-122.8 118.6-199.4 158.2-25.2 13-51 25.6-83.8 6.8-66.8-38.6-140.8-43-213.4-19.6-51.4 16.6-96.6 12-139.2-18.6-24.6-17.8-46.4-32.2-70.4-58-71.4-77-130.2-149-145.6-250.8-11.4-76.6-1.4-151.6 47.6-215 39.2-50.6 100-69.4 157.6-80 84.2-15.4 171.2-16.8 250.2-23.6 80.6 5.6 154.4 8.6 227.4 17 39 4.4 78.2 14.8 114.8 29 65.2 25.2 107.2 72 126 142 32 118-5.8 218.4-71.8 312.6zM600.6 279.4c12.8-1.2 19.8-7.6 21-19.2-1.2-11.8-8.2-18.2-21-19.4h-65v-29.8h65c12.8-1.2 19.8-7.6 21-19.2-1.2-11.8-8.2-18.2-21-19.2h-65v-54.6c-1.2-20-12.2-29.8-33.4-29.8-21 0-32.2 10-33.4 29.8v54.4h-64.8c-13 1.2-20 7.6-21 19.2 1.2 11.6 8.2 18.2 21 19.2h65v29.8h-65c-13 1.2-20 7.6-21 19.4 1.2 11.6 8.2 18.2 21 19.2h36.8l-56.2 79c-4.6 5.8-7 12.2-7 19.2 2.4 19.8 13.4 31 33.4 33.4 11.6-1.2 20.4-5.8 26.4-14l65-93 65 93c5.8 8.2 14.6 12.8 26.4 14 19.8-2.4 31-13.4 33.4-33.4 0-7-2.4-13.4-7-19.2l-56.2-79h36.6z" />
<glyph unicode="&#xe630;" glyph-name="briefcase" d="M939.4 704.2c-55.8-2-111.8-0.4-171.6-0.4 0 14 0 26.6 0 39 0 45.4 0 90.8 0.2 136.2 0 48.2-10 63.4-53.4 81-136.6 0-273.2 0-409.6 0-38.4-15.6-50.4-45-49.2-84.8 1.8-56 0.4-112 0.4-171.4-13 0-24 0-35 0-45.4 0-91-1.6-136.4 0.4-40 1.8-69-11.2-84.8-49.2 0-69.8 0-139.6 0-209.4 50-11.6 100-22.8 149.8-35.2 113.8-28 227.4-57 341.2-84.8 12.6-3 27.2-3.2 39.8-0.2 158.6 39 316.8 78.8 475.2 118.4 5.8 1.4 12 1.2 17.8 1.8 0 69.8 0 139.6 0 209.4-15.4 38.2-44.6 50.6-84.4 49.2zM639.8 705.8c-84.8 0-169.2 0-255.2 0 0 41.4 0 82.6 0 125.2 85.2 0 169.6 0 255.2 0 0-41.8 0-82.4 0-125.2zM627.6 284.8c-12.6-3-20-7.2-23.6-22.2-10-41.8-50-71.2-92-71s-79.4 29.8-92.6 71.4c-2.4 7.6-9.8 17.2-16.8 19-130.4 33.6-261 66.4-391.4 99-3.6 1-7.6 0.6-11.2 0.8 0-132 0-264 0-396 9.4-24 25.8-40.8 50-50 308 0 616 0 923.8 0 24.2 9.2 41 25.8 50 50 0 132 0 264 0 396-63.2-15.2-126.4-30.2-189.4-45.6-68.8-16.8-137.6-34.4-206.8-51.4z" />
<glyph unicode="&#xe631;" glyph-name="id" d="M1020.2 713.2c-12.4 55.4-61.2 99.2-117.4 105.6-6.6 0.8-13.4 1.2-20 1.2-247.8 0-495.6-0.2-743.4 0-68.4 0-117.8-47.2-133.2-96.2-2.8-8.8-3.8-18.2-5.8-27.4-0.2-1.2-0.6-2.6-0.8-3.8 0-162.6 0-325.2 0-487.8 2.4-11.4 3.2-23.4 7.4-34.2 20.8-54.4 59.6-86.6 118.4-93.6 5.4-0.6 10.6-0.8 16-0.8 247.8 0 495.8 0 743.6 0 70 0 118.6 50.2 132.6 97 2.4 8 3.6 16.6 5.2 24.8 0.2 0.8 0.6 1.6 0.8 2.4 0 165 0 330 0 495-1.2 5.8-2.2 11.8-3.4 17.8zM882.4 168.6c-123.6 0.4-247.2 0.2-370.8 0.2-123.8 0-247.4 0-371.2 0-24 0-43.6 16.4-47.4 39.6-0.4 3-0.4 6-0.4 9 0 153.8 0 307.6 0 461.4 0 27.8 20.6 48.6 48.6 48.6 247.2 0 494.4 0 741.6 0 26.8 0 47.4-20.2 47.4-47 0-154.8 0-309.4 0.2-464.2-0.4-24.4-20.8-47.6-48-47.6zM421.8 398.2c-62 0.2-123.8 0-185.8 0-15.2 0-27.8-6-37-18.2-11.2-15-12.6-31.4-4.6-48s21.8-26.2 40.6-26.4c31.2-0.2 62.2 0 93.4 0 30.8 0 61.6 0 92.4 0 17.8 0 31.4 7.8 40.8 22.4 9.4 14.4 10.2 30.2 2 45.4-8.8 16.2-23.2 24.8-41.8 24.8zM236 496.6c31 0 62 0 92.8 0 0 0 0 0 0 0.2 32 0 64-0.4 96 0.2 18 0.4 31.4 10 39.4 25.8 15.2 30.2-7.8 66.2-42.4 66.4-62 0.4-123.8 0.2-185.8 0-29.8-0.2-51.2-27.2-45.4-56.4 4.4-21.2 23-36.2 45.4-36.2zM656 438.4c25.8-7.8 52-7.8 77.8-0.4 26 7.6 42.6 24.8 49.8 50.8 6.8 24.4 6.6 49.2 0 73.6-7 26-23.4 43.8-49.6 51.6-25.6 7.6-51.4 7.6-77 0-24.2-7-40.2-23-48.2-46.8-4.6-13.4-6-27.2-6.8-41.4 1.4-10.4 2-21 4.2-31.4 6-28 22.2-47.6 49.8-56zM798.8 358.4c-13.4 14.4-30.4 23.2-49 28.8-28.6 8.6-57.8 9-87.2 5-22.4-3-43.4-10.4-61.2-24.8-10.2-8-18-17.6-21-30.6-2.8-12-0.6-17.8 10.2-23.8 6.8-3.6 14-6.6 21.2-9 26.8-8.4 54.6-9.8 81-10 29.8 0 57.8 1.6 85 10.2 9.2 2.8 18 7.4 26.6 12 5.4 3 7.6 8.2 7 14.8-1 10.6-5.4 19.6-12.6 27.4z" />
<glyph unicode="&#xe632;" glyph-name="phone" d="M510.8 288.6c-56.8 46.2-122.2 108.4-179 178.6-39.8 49.2-75 100.8-38.6 137.2l-255.2 254.4c-37.2-46.4-119.6-267 233.6-628.4 372.2-380.8 612.2-299.2 653.4-256.4l-248.8 248.6c-34.8-34.8-79.4-4-165.4 66zM1014.8 118.4v0c0 0.2-194 193.6-194.2 193.6-15.4 15.4-40 15-55.2 0l-70.4-70.4 249.4-249c0 0 70.4 70.2 70.4 70.2l0.2 0.2c16 16.2 14.4 40.8-0.2 55.4zM382.8 693.8v0c16.2 16.4 14.6 40.8 0 55.4v0.2c0 0-199.6 199-199.8 199-15.4 15.4-40 15-55.2 0l-70.4-70.2 255-254.6c0 0 70.4 70 70.4 70.2z" />
<glyph unicode="&#xe633;" glyph-name="map-marker" d="M903.8 576c0 212-171.8 384-384 384-212 0-384-172-384-384 0-70 19-135.4 51.8-192h-0.4c0 0 272.8-448 332.6-448s332.8 448 332.8 448h-0.6c32.8 56.6 51.8 122 51.8 192zM519.8 384c-106 0-192 86-192 192s86 192 192 192c106.2 0 192-86 192-192s-85.8-192-192-192z" />
<glyph unicode="&#xe634;" glyph-name="birthday-cake" d="M1018.8 216.8c-60.8 64.4-127.2 120.4-219.2 133.2-60.6 8.4-85.8-7-110.4-64.6-14.6-34-26.8-69.4-43.4-102.6-35.6-71.2-96.2-99-173.6-82.2-47.2 10.2-82 38.2-107.8 77.8-15.8 24-29.8 49.2-45.4 73.4-16.2 25.4-38.8 37.6-70.2 36.4-69.8-2.6-128.4-30-182.6-72.8-46-36.6-69.4-77.4-64.8-139.6 6.4-85.2 55.2-138.4 141.4-138.4 123.6-0.2 247.2 0 370.6 0 126.4 0 252.8-0.4 379 0.2 75.4 0.4 129.8 55.2 131 130.4 0.6 42.8 0.4 85.4 0 128.2 0 7-0.4 16-4.6 20.6zM36.4 272.4c57.8 47 123.6 73 198.4 79.2 62.4 5.2 108.2-17.8 141.2-69.6 18.4-29 34.4-60 56.2-86.2 46.8-56 126-45.6 158.2 19.2 10.2 20.8 17.4 43 27 64.2 11 24.4 21.4 49.6 35.2 72.4 21.2 35 51.8 57.8 94 62.2 65.2 6.8 125.6-8.8 181.4-41.6 32.4-19 62.2-42 93.2-63.4 8.8 67.2 1.6 115.2-21 147.8-41.2 59.6-104 55.8-168 53.8 0 41.6 0.8 79.6-0.4 117.4-0.4 14.4-3 30-9.4 42.6-13.2 26-43.2 36.8-71.6 29.4-26.4-7-44.8-30.4-45.2-59.8-0.6-42.4-0.2-84.8-0.2-126.8-45.2 0-86.4 0-127 0-0.8 4.4-1.6 6.2-1.6 8-0.2 36.2 0 72.4-0.4 108.8-0.4 44.6-24.8 72-63.4 72-38.4 0-62.8-28-63-72.4-0.2-38.6 0-77.4 0-116.4-44.8 0-85.8 0-128.8 0 0 15.2 0 28.2 0 41 0 27 0.2 53.8 0 80.8-0.4 40-25.8 66.8-62.8 66.8-36.6 0-63-26.6-64-66.4-1-40.6-0.2-81.2-0.2-124.8-22.4 0-41.8 0.2-61 0-68-0.6-121.2-43.6-128-111-5-49.2-1-99.4-1-153.6 13.6 11.2 22.8 18.8 32.2 26.4zM254.8 767.6c41.2-1.4 66.8 25.6 72 72.4-9.8 28.4-16.2 58.6-30 85.2-23 44.4-54 44.8-76.4 0.8-13-25.6-20.8-55.2-25-84-6-42 21.2-73 59.4-74.4zM515 767.8c39.4 0.4 62.6 27.8 61.4 72.6 2.6 1 5 2.2 7.6 3.2-14 32.4-25.2 66.6-43 96.6-15.4 25.6-37.8 23.8-56.6 0.2-23.2-29.2-33.2-63.6-34.4-100.6-1.2-45.4 23.6-72.4 65-72zM766.8 767.4c38.4-0.6 65 26.8 65.2 67 2.4 1 4.8 1.8 7.2 2.8-13.4 33.8-23.8 69.2-41.2 100.8-15.8 28.4-39.6 27-59.8 0.6-23.2-30.4-33-65.6-32.8-103.8 0.2-40.4 24.2-66.8 61.4-67.4z" />
<glyph unicode="&#xe635;" glyph-name="gender" d="M312 424.4c80.2 0 145 75.4 145 168.4s-44.4 168.6-145 168.6-145-75.4-145-168.4 65-168.6 145-168.6zM426.2 386.8l-78-89.6-15.8 69c35.4 14.8 0 29.6 0 29.6h-38.8c-35.4-10.2 0-29.6 0-29.6l-16-69-93.6 94.2c-196.2-53.2-183.8-249-183.8-249 384.8-86.8 619 0 619 0-8 224.8-193 244.4-193 244.4zM602.4 535.4c122.4-139.6 209 0 209 0 48.8-41.2 84.8-13.8 84.8-13.8-46.2 37.6-41.6 88.8-48 194.4-36.6 134.2-246.6 136.4-283.6 0-2.6-182.4-50.6-194.4-50.6-194.4 64.4-16.6 88.4 13.8 88.4 13.8zM815.6 466.4c-108-104.4-239.8 0-239.8 0-21.4 1.8-73.6-36.2-73.6-36.2 176.4-81.6 183.2-261.8 183.2-261.8 174.8-14.6 342.6 47.2 342.6 47.2-29 219-212.4 250.8-212.4 250.8z" />
<glyph unicode="&#xe636;" glyph-name="plus" d="M1024 550.4h-409.6v409.6h-204.8v-409.6h-409.6v-204.8h409.6v-409.6h204.8v409.6h409.6z" />
<glyph unicode="&#xe637;" glyph-name="plus-circle" d="M512 960c-282.8 0-512-229.2-512-512s229.2-512 512-512 512 229.2 512 512-229.2 512-512 512zM512 0c-247 0-448 201-448 448s201 448 448 448c247 0 448-201 448-448s-201-448-448-448zM768 499.2h-204.8v204.8c0 28.2-23 51.2-51.2 51.2s-51.2-23-51.2-51.2v-204.8h-204.8c-28.2 0-51.2-23-51.2-51.2s23-51.2 51.2-51.2h204.8v-204.8c0-28.2 23-51.2 51.2-51.2s51.2 23 51.2 51.2v204.8h204.8c28.2 0 51.2 23 51.2 51.2s-23 51.2-51.2 51.2z" />
</font>
</defs>
</svg>
